<svg width="50" height="49" viewBox="0 0 50 49" fill="none" xmlns="http://www.w3.org/2000/svg">
<ellipse cx="25" cy="24.5" rx="25" ry="24.5" fill="#F59860"/>
<path d="M37.1776 18.4796C37.1961 18.7647 37.1961 19.0481 37.1961 19.3315C37.1961 28.0053 31.409 38 20.8328 38C17.5744 38 14.5473 36.9233 12 35.0534C12.4626 35.1136 12.9081 35.1348 13.3893 35.1348C15.978 35.142 18.4934 34.1545 20.5301 32.3315C19.3298 32.3068 18.1664 31.855 17.2021 31.0394C16.2378 30.2238 15.5208 29.085 15.1513 27.7821C15.5068 27.8424 15.8638 27.8831 16.2379 27.8831C16.7534 27.8831 17.2717 27.8017 17.7529 27.6599C16.4503 27.3599 15.2791 26.5545 14.4383 25.3806C13.5974 24.2068 13.139 22.7369 13.1409 21.221V21.1396C13.9076 21.6266 14.7972 21.9312 15.7396 21.9719C14.9501 21.3735 14.3028 20.5614 13.8553 19.6081C13.4078 18.6548 13.1742 17.59 13.1751 16.5087C13.1751 15.2903 13.4593 14.1729 13.9576 13.1988C15.4028 15.2268 17.2053 16.8859 19.2483 18.0686C21.2914 19.2513 23.5294 19.9313 25.8175 20.0645C25.7289 19.5759 25.6747 19.0693 25.6747 18.5611C25.6743 17.6993 25.8228 16.846 26.1117 16.0498C26.4006 15.2535 26.8243 14.5301 27.3584 13.9207C27.8926 13.3114 28.5267 12.8281 29.2247 12.4986C29.9227 12.169 30.6707 11.9996 31.4261 12C33.0825 12 34.5774 12.7916 35.6283 14.0719C36.916 13.7879 38.1507 13.2517 39.278 12.487C38.8488 14.0032 37.9497 15.2889 36.7492 16.1031C37.8912 15.9545 39.0073 15.6119 40.0604 15.0867C39.2739 16.3948 38.2992 17.542 37.1776 18.4796Z" fill="white"/>
</svg>
